Jump_normalized_Motion_pl05
version=1
nRows=19
nColumns=43
inDegrees=yes
endheader
time		pelvis_tilt		pelvis_list		pelvis_rotation		pelvis_tx		pelvis_ty		pelvis_tz		hip_flexion_r		hip_adduction_r		hip_rotation_r		knee_angle_r		ankle_angle_r		subtalar_angle_r		mtp_angle_r		hip_flexion_l		hip_adduction_l		hip_rotation_l		knee_angle_l		ankle_angle_l		subtalar_angle_l		mtp_angle_l		lumbar_extension		lumbar_bending		lumbar_rotation		neck_flexion		neck_lateral_bending		neck_rotation		arm_flex_r		arm_add_r		arm_rot_r		elbow_flex_r		pro_sup_r		wrist_flex_r		wrist_dev_r		hand_finger_flex_r		arm_flex_l		arm_add_l		arm_rot_l		elbow_flex_l		pro_sup_l		wrist_flex_l		wrist_dev_l		hand_finger_flex_l		
0.540000		-3.263163		-20.638302		92.748341		0.018763		1.801243		1.824753		75.941402		-5.647034		7.309307		-128.202565		28.168069		-3.249107		4.944014		75.359026		0.449206		5.273662		-124.876231		32.191670		-5.545167		6.363887		-48.374963		-0.804463		-4.356292		38.650531		1.961188		-1.121766		129.362501		-7.555363		34.125831		52.322764		65.977673		-32.837957		5.136044		33.819744		125.928001		-3.250925		21.959210		57.453312		101.543113		-23.908821		14.868981		80.895677		
0.543409		-3.242713		-21.109569		92.741561		0.018641		1.802943		1.821526		75.820074		-5.622024		7.256013		-127.779381		28.137984		-3.335386		4.854575		75.263994		0.457348		5.209556		-124.494420		32.179266		-5.708632		6.342842		-48.004517		-0.789652		-4.323622		38.778286		1.926286		-1.079040		130.516134		-7.311929		34.260895		52.151306		65.926767		-32.846868		4.882098		33.538909		127.085036		-3.074208		21.971970		57.142115		101.403196		-24.246781		14.759839		80.735235		
0.546818		-3.208123		-21.603251		92.733081		0.018502		1.804649		1.818238		75.708534		-5.586675		7.188449		-127.339744		28.109342		-3.432775		4.756359		75.187376		0.464996		5.157359		-124.108947		32.156182		-5.888825		6.324822		-47.597049		-0.771392		-4.275456		38.887698		1.903053		-1.047284		131.645678		-7.081632		34.406464		51.974738		65.880629		-32.864316		4.651887		33.277220		128.216738		-2.900321		21.987331		56.814548		101.271907		-24.591204		14.602631		80.565240		
0.550227		-3.181960		-22.084171		92.719015		0.018280		1.806448		1.814632		75.545925		-5.558632		7.139903		-126.886041		28.085879		-3.462769		4.710983		75.055459		0.480599		5.095716		-123.726958		32.132128		-5.955287		6.316855		-47.154801		-0.757402		-4.238296		38.731209		1.910354		-1.040228		132.557190		-6.903418		34.359772		52.029713		65.883776		-32.879991		4.507971		33.177504		129.123870		-2.790770		21.879853		56.768557		101.226327		-24.759479		14.490824		80.480075		
0.553636		-3.133139		-22.633560		92.690160		0.018134		1.808114		1.811306		75.478413		-5.492095		7.065993		-126.423837		28.080657		-3.575462		4.629691		75.035159		0.489352		5.068895		-123.331971		32.123715		-6.144912		6.307513		-46.672492		-0.751231		-4.165061		38.914733		1.905132		-1.013715		133.688495		-6.641175		34.481113		51.710615		65.921198		-32.909190		4.319616		33.019196		130.262268		-2.575137		21.865823		56.301045		101.177115		-25.037360		14.304588		80.309478		
0.557045		-3.074330		-23.160713		92.632742		0.017951		1.809841		1.807856		75.378443		-5.410084		6.997436		-125.954774		28.065903		-3.725182		4.533766		74.990325		0.487478		5.048756		-122.948386		32.080348		-6.353571		6.297822		-46.193397		-0.756416		-4.059305		39.010013		1.902294		-1.000468		134.794711		-6.413793		34.640311		51.390957		65.992177		-32.900572		4.073000		32.905085		131.337610		-2.379295		21.851349		55.887467		101.113142		-25.331710		14.069004		80.136365		
0.560455		-3.044859		-23.638438		92.578894		0.017791		1.811809		1.804055		75.171532		-5.320661		6.934460		-125.438923		28.007259		-3.865912		4.413130		74.815620		0.483921		5.015775		-122.513489		31.984288		-6.520538		6.291136		-45.730334		-0.765236		-3.940538		38.870613		1.885308		-1.008636		135.716229		-6.287191		34.775021		51.281421		66.037760		-32.842346		3.769523		32.836157		132.189184		-2.266983		21.824457		55.757537		100.977925		-25.638054		13.795827		79.992035		
0.563864		-2.972633		-24.087783		92.449301		0.017734		1.813735		1.800452		74.962066		-5.122985		6.814479		-124.913877		27.911435		-4.318063		4.030574		74.651869		0.407878		5.002386		-122.095813		31.797103		-6.999970		6.304542		-45.319714		-0.792636		-3.667011		38.978290		1.758729		-1.043260		136.929888		-6.153292		35.368084		50.721851		66.045563		-32.645870		2.997001		32.671097		133.233081		-2.077554		22.021686		55.221960		100.449712		-26.505363		13.063702		79.625070		
0.567273		-2.983545		-24.578038		92.405691		0.017513		1.815772		1.796460		74.752925		-5.124042		6.787295		-124.392134		27.944996		-4.328018		3.975676		74.469240		0.457824		4.973097		-121.640716		31.816962		-6.995085		6.319361		-44.818870		-0.816199		-3.619596		38.815875		1.753504		-1.040095		137.658776		-5.952108		35.185583		50.724545		66.002287		-32.692726		2.893119		32.616339		133.986936		-1.954074		21.877667		55.152283		100.349309		-26.651366		12.986476		79.564508		
0.570682		-3.050024		-25.095225		92.279985		0.017371		1.817630		1.792715		74.614818		-5.085524		6.809790		-123.885290		27.991754		-4.491938		3.831600		74.338872		0.477730		4.885016		-121.178083		31.807148		-7.091279		6.351572		-44.319614		-0.920941		-3.554006		38.886384		1.729684		-1.013758		138.617243		-5.659058		35.218281		50.340514		65.976996		-32.716122		2.712299		32.493091		134.958848		-1.716814		21.830897		54.688201		100.105632		-26.984009		12.862425		79.407463		
0.574091		-3.119097		-25.566762		92.164289		0.017134		1.819767		1.788600		74.382605		-5.077569		6.824084		-123.331564		27.956335		-4.596377		3.698214		74.098207		0.507938		4.784302		-120.688495		31.748681		-7.157417		6.375125		-43.829776		-1.007915		-3.490104		38.730514		1.713969		-1.009155		139.372194		-5.492038		35.241579		50.259310		65.960225		-32.703521		2.526967		32.406598		135.696050		-1.612223		21.799599		54.570623		99.897749		-27.246447		12.728092		79.303747		
0.577500		-3.150971		-26.047326		92.095790		0.016846		1.821994		1.784314		74.116003		-5.101253		6.789571		-122.738907		27.925585		-4.602610		3.660827		73.847443		0.551302		4.731150		-120.160827		31.709736		-7.155127		6.377079		-43.301209		-1.049793		-3.443434		38.493983		1.716595		-1.008819		139.981560		-5.337540		35.144092		50.316964		65.967554		-32.721339		2.441012		32.370223		136.312065		-1.539901		21.693839		54.584027		99.856580		-27.334306		12.673550		79.261117		
0.580909		-3.258315		-26.545111		91.971107		0.016636		1.823983		1.780298		73.937855		-5.110504		6.820575		-122.210175		27.926237		-4.809715		3.520856		73.655614		0.601192		4.588776		-119.651188		31.699303		-7.302174		6.407122		-42.783005		-1.161832		-3.420268		38.496038		1.660823		-0.996771		140.823176		-5.036896		35.186400		49.918465		65.999645		-32.786890		2.251583		32.225786		137.177371		-1.356831		21.670889		54.135349		99.718464		-27.624302		12.539144		79.113064		
0.584318		-3.349848		-26.985859		91.858778		0.016404		1.826214		1.775981		73.657865		-5.128751		6.827816		-121.636437		27.847120		-5.001464		3.360387		73.357303		0.646314		4.453556		-119.108801		31.647176		-7.448319		6.433248		-42.294710		-1.257165		-3.392412		38.332476		1.625766		-1.006881		141.523208		-4.815524		35.218094		49.692248		66.052815		-32.825158		2.007202		32.111869		137.880423		-1.267247		21.666630		53.913540		99.627758		-27.891688		12.358674		78.995265		
0.587727		-3.395628		-27.428230		91.777742		0.016104		1.828487		1.771432		73.337938		-5.163834		6.797142		-121.031514		27.771382		-5.072345		3.268810		73.041087		0.684381		4.362089		-118.559031		31.584643		-7.497604		6.442802		-41.772112		-1.311268		-3.339388		38.107056		1.624404		-1.015177		142.077455		-4.668183		35.175325		49.671096		66.082577		-32.841299		1.850941		32.056457		138.438893		-1.224211		21.614123		53.883189		99.584208		-28.037982		12.247315		78.933568		
0.591136		-3.440400		-27.797110		91.686855		0.015965		1.830861		1.766802		72.946997		-5.166245		6.733524		-120.433103		27.662891		-5.268980		3.115524		72.642380		0.693924		4.275744		-117.993284		31.541047		-7.616568		6.461378		-41.323378		-1.382704		-3.280358		37.871299		1.592967		-1.034807		142.658154		-4.462944		35.127732		49.466317		66.147212		-32.874213		1.611851		31.987990		139.043753		-1.132268		21.572622		53.695881		99.570146		-28.271976		12.099449		78.827871		
0.594545		-3.482916		-28.143528		91.585821		0.015773		1.833287		1.762051		72.525273		-5.171635		6.663180		-119.819476		27.537409		-5.486116		2.942605		72.204867		0.702459		4.185146		-117.429417		31.483746		-7.737327		6.481464		-40.890468		-1.451145		-3.203227		37.642868		1.568037		-1.055327		143.209832		-4.262559		35.089203		49.266854		66.217122		-32.895333		1.351114		31.924641		139.613749		-1.051967		21.542402		53.524399		99.557574		-28.524066		11.938177		78.718056		
0.597955		-3.500909		-28.547251		91.524085		0.015613		1.835688		1.757138		72.145994		-5.204348		6.571176		-119.190896		27.442956		-5.512017		2.881134		71.818490		0.711820		4.137820		-116.840117		31.407229		-7.725649		6.478835		-40.368613		-1.499989		-3.131675		37.388431		1.574935		-1.060863		143.621509		-4.159735		35.003812		49.293833		66.235971		-32.895193		1.255449		31.912711		140.034956		-1.014876		21.471019		53.567153		99.559470		-28.609254		11.881323		78.680429		
0.601364		-3.512031		-28.548266		91.358326		0.015730		1.838834		1.751753		71.301874		-5.092383		6.427621		-118.514854		27.146259		-6.083492		2.458608		70.940480		0.590402		4.050436		-116.222346		31.314010		-7.882312		6.523988		-40.303455		-1.592270		-2.968477		37.123833		1.512322		-1.075598		144.132346		-3.930072		34.886061		49.005269		66.340703		-32.800001		0.802751		31.922706		140.536482		-0.952249		21.469593		53.471179		99.624946		-29.170175		11.626322		78.458076		
